# xmcd
#
# Track frame offsets:
#	150
#	14244
#	30650
#	46315
#	64059
#	78771
#	91587
#	107684
#	123655
#	138247
#	150942
#	167123
#	178545
#	194555
#	209633
#	225294
#	240438
#	258954
#
# Disc length: 3674 seconds
#
# Revision: 1
# Processed by: cddbd v1.5.2PL0 Copyright (c) Steve Scherf et al.
# Submitted via: audiograbber 1.82.02
#
DISCID=e40e5812
DTITLE=Various Artist  - Country Radio - February 2017
DYEAR=2017
DGENRE=Country
TTITLE0=Michael Tyler - They Can't See
TTITLE1=Brandon Maddox - Dixie Chaser
TTITLE2=Kala James - Slow Train Coming
TTITLE3=Reba McEntire (Ft. Kelly Clarkson) - Softly and Tenderly
TTITLE4=Shane Owens - All The Beer In Alabama
TTITLE5=Denny Strickland - Get A Grip
TTITLE6=Mark Chestnutt - Oughta Miss Me By Now
TTITLE7=Brothers Osborne - It Ain't My Fault
TTITLE8=Ellie May Kay - Girl With A Fishing Rod, The
TTITLE9=Mo Pitney - Everywhere
TTITLE10=CJ Solar - Just Another Day In The Country
TTITLE11=Southern Halo - Living Like That
TTITLE12=Hudson Moore - Might As Well
TTITLE13=Jason Aldean - Any Ol' Barstool
TTITLE14=Fabian - Addictive Love
TTITLE15=Luke Bryan - Fast
TTITLE16=Serene and Pearl - Bread Of Life
TTITLE17=Brett Young - In Case You Didn't Know
EXTD=
EXTT0=
EXTT1=
EXTT2=
EXTT3=
EXTT4=
EXTT5=
EXTT6=
EXTT7=
EXTT8=
EXTT9=
EXTT10=
EXTT11=
EXTT12=
EXTT13=
EXTT14=
EXTT15=
EXTT16=
EXTT17=
PLAYORDER=
